<svg width="1280" height="640" viewBox="0 0 1280 640" fill="none" xmlns="http://www.w3.org/2000/svg">
<rect width="1280" height="640" fill="#E5E5E5"/>
<rect width="1280" height="640" fill="#F7F176"/>
<path d="M620 170.3V200.7C617.2 202.3 613.867 203.567 610 204.5C606.133 205.367 602.2 205.8 598.2 205.8C592.467 205.8 587.3 204.9 582.7 203.1C578.167 201.3 574.267 198.833 571 195.7C567.733 192.5 565.233 188.733 563.5 184.4C561.767 180.067 560.9 175.333 560.9 170.2C560.9 164.533 561.9 159.367 563.9 154.7C565.967 149.967 568.733 145.9 572.2 142.5C575.733 139.1 579.767 136.467 584.3 134.6C588.9 132.667 593.767 131.7 598.9 131.7C602.367 131.7 606 132.167 609.8 133.1C613.6 133.967 616.9 135.233 619.7 136.9L614.4 145.8C613.4 145.2 612.233 144.667 610.9 144.2C609.633 143.733 608.3 143.333 606.9 143C605.5 142.667 604.1 142.433 602.7 142.3C601.3 142.1 599.967 142 598.7 142C595.167 142 591.767 142.7 588.5 144.1C585.233 145.5 582.367 147.433 579.9 149.9C577.433 152.367 575.467 155.267 574 158.6C572.533 161.933 571.8 165.533 571.8 169.4C571.8 172.933 572.433 176.267 573.7 179.4C575.033 182.533 576.867 185.3 579.2 187.7C581.533 190.1 584.333 192 587.6 193.4C590.867 194.8 594.467 195.5 598.4 195.5C599.933 195.5 601.733 195.367 603.8 195.1C605.933 194.767 607.967 194.233 609.9 193.5V179.7H595.8V170.3H620ZM629.283 147.2C629.283 145.6 629.849 144.267 630.983 143.2C632.183 142.133 633.449 141.6 634.783 141.6C636.116 141.6 637.349 142.133 638.483 143.2C639.616 144.267 640.183 145.6 640.183 147.2C640.183 148.8 639.616 150.133 638.483 151.2C637.349 152.2 636.116 152.7 634.783 152.7C633.449 152.7 632.183 152.2 630.983 151.2C629.849 150.133 629.283 148.8 629.283 147.2ZM638.883 205H630.383V163.2H638.883V205ZM654.491 144.8H662.991V163.3H674.191V170.9H662.991V205H654.491V170.9H646.991V163.3H654.491V144.8ZM682.306 205V132.5H693.206V163.3H729.506V132.5H740.506C740.506 133.367 740.506 135 740.506 137.4C740.506 139.733 740.506 142.533 740.506 145.8C740.506 149.067 740.506 152.7 740.506 156.7C740.506 160.633 740.473 164.667 740.406 168.8C740.406 172.867 740.406 176.9 740.406 180.9C740.406 184.833 740.406 188.433 740.406 191.7C740.406 194.967 740.406 197.8 740.406 200.2C740.406 202.533 740.406 204.133 740.406 205H729.506V173.7H693.206V205H682.306ZM793.404 205.9H786.204L785.204 194.3C783.671 197.7 781.504 200.5 778.704 202.7C775.971 204.9 772.471 206 768.204 206C763.937 206 760.537 204.867 758.004 202.6C755.537 200.267 754.237 197.233 754.104 193.5V163.2H762.604V189.7C762.737 191.767 763.471 193.533 764.804 195C766.204 196.467 768.337 197.3 771.204 197.5C773.204 197.5 775.037 197.167 776.704 196.5C778.371 195.767 779.804 194.8 781.004 193.6C782.204 192.4 783.137 190.967 783.804 189.3C784.471 187.633 784.804 185.8 784.804 183.8V163.2H793.404V205.9ZM850.083 184.2C850.083 187.333 849.549 190.233 848.483 192.9C847.416 195.567 845.916 197.867 843.983 199.8C842.049 201.733 839.716 203.267 836.983 204.4C834.316 205.467 831.383 206 828.183 206C826.516 206 824.916 205.8 823.383 205.4C821.916 205.067 820.549 204.6 819.283 204C818.016 203.333 816.916 202.633 815.983 201.9C815.049 201.1 814.349 200.3 813.883 199.5C813.883 199.833 813.883 200.2 813.883 200.6C813.949 200.933 813.983 201.267 813.983 201.6V205H805.383V127.3H813.983V169.3C814.516 168.5 815.216 167.7 816.083 166.9C817.016 166.033 818.083 165.267 819.283 164.6C820.549 163.867 821.949 163.267 823.483 162.8C825.016 162.333 826.716 162.1 828.583 162.1C831.783 162.1 834.683 162.633 837.283 163.7C839.949 164.7 842.216 166.167 844.083 168.1C846.016 169.967 847.483 172.267 848.483 175C849.549 177.733 850.083 180.8 850.083 184.2ZM840.783 184C840.783 182.067 840.483 180.3 839.883 178.7C839.283 177.033 838.416 175.6 837.283 174.4C836.149 173.2 834.783 172.267 833.183 171.6C831.583 170.867 829.783 170.5 827.783 170.5C825.783 170.5 823.916 170.867 822.183 171.6C820.516 172.267 819.083 173.2 817.883 174.4C816.683 175.6 815.716 177.033 814.983 178.7C814.316 180.3 813.983 182.067 813.983 184C813.983 185.933 814.316 187.733 814.983 189.4C815.716 191.067 816.683 192.5 817.883 193.7C819.083 194.9 820.516 195.867 822.183 196.6C823.916 197.267 825.783 197.6 827.783 197.6C829.783 197.6 831.583 197.267 833.183 196.6C834.783 195.867 836.149 194.9 837.283 193.7C838.416 192.433 839.283 191 839.883 189.4C840.483 187.733 840.783 185.933 840.783 184ZM930.234 205C929.9 204.267 929.434 203.2 928.834 201.8C928.234 200.4 927.534 198.8 926.734 197C926 195.133 925.167 193.133 924.234 191C923.367 188.8 922.467 186.533 921.534 184.2H895.934L887.334 205H876.534L908.834 129.1C909.234 130.033 909.934 131.733 910.934 134.2C912 136.667 913.234 139.633 914.634 143.1C916.1 146.5 917.7 150.3 919.434 154.5C921.234 158.633 923.034 162.833 924.834 167.1C926.7 171.367 928.5 175.567 930.234 179.7C932.034 183.833 933.667 187.633 935.134 191.1C936.6 194.567 937.834 197.533 938.834 200C939.9 202.4 940.634 204.067 941.034 205H930.234ZM899.734 175H917.834C916.9 172.8 916 170.7 915.134 168.7C914.334 166.633 913.567 164.767 912.834 163.1C912.167 161.367 911.567 159.867 911.034 158.6C910.5 157.333 910.1 156.333 909.834 155.6C909.767 155.467 909.6 155 909.334 154.2C909.134 153.4 908.967 152.667 908.834 152C908.7 152.667 908.5 153.4 908.234 154.2C907.967 155 907.8 155.467 907.734 155.6L899.734 175ZM974.105 194.7C975.039 195.833 975.905 196.933 976.705 198C977.572 199 978.439 200.067 979.305 201.2C977.439 202.667 975.339 203.833 973.005 204.7C970.672 205.567 968.139 206 965.405 206C962.339 206 959.439 205.433 956.705 204.3C954.039 203.1 951.705 201.5 949.705 199.5C947.705 197.5 946.105 195.167 944.905 192.5C943.772 189.833 943.205 187 943.205 184C943.205 181 943.772 178.167 944.905 175.5C946.105 172.833 947.705 170.533 949.705 168.6C951.705 166.6 954.039 165.033 956.705 163.9C959.439 162.7 962.339 162.1 965.405 162.1C968.205 162.1 970.772 162.533 973.105 163.4C975.505 164.267 977.672 165.433 979.605 166.9L974.105 173.4C972.972 172.467 971.672 171.767 970.205 171.3C968.739 170.767 967.139 170.5 965.405 170.5C963.405 170.5 961.572 170.867 959.905 171.6C958.239 172.267 956.772 173.2 955.505 174.4C954.305 175.6 953.372 177.033 952.705 178.7C952.039 180.3 951.705 182.067 951.705 184C951.705 185.933 952.039 187.733 952.705 189.4C953.372 191 954.305 192.433 955.505 193.7C956.772 194.9 958.239 195.867 959.905 196.6C961.572 197.267 963.405 197.6 965.405 197.6C967.139 197.6 968.739 197.367 970.205 196.9C971.672 196.367 972.972 195.633 974.105 194.7ZM991.307 144.8H999.807V163.3H1011.01V170.9H999.807V205H991.307V170.9H983.807V163.3H991.307V144.8ZM1016.98 147.2C1016.98 145.6 1017.54 144.267 1018.68 143.2C1019.88 142.133 1021.14 141.6 1022.48 141.6C1023.81 141.6 1025.04 142.133 1026.18 143.2C1027.31 144.267 1027.88 145.6 1027.88 147.2C1027.88 148.8 1027.31 150.133 1026.18 151.2C1025.04 152.2 1023.81 152.7 1022.48 152.7C1021.14 152.7 1019.88 152.2 1018.68 151.2C1017.54 150.133 1016.98 148.8 1016.98 147.2ZM1026.58 205H1018.08V163.2H1026.58V205ZM1035.69 184C1035.69 181 1036.25 178.167 1037.39 175.5C1038.59 172.833 1040.19 170.533 1042.19 168.6C1044.19 166.6 1046.52 165.033 1049.19 163.9C1051.92 162.7 1054.85 162.1 1057.99 162.1C1061.12 162.1 1064.02 162.7 1066.69 163.9C1069.42 165.033 1071.75 166.6 1073.69 168.6C1075.69 170.533 1077.22 172.833 1078.29 175.5C1079.42 178.167 1079.99 181 1079.99 184C1079.99 187 1079.42 189.833 1078.29 192.5C1077.22 195.167 1075.69 197.5 1073.69 199.5C1071.75 201.5 1069.42 203.1 1066.69 204.3C1064.02 205.433 1061.09 206 1057.89 206C1054.82 206 1051.92 205.467 1049.19 204.4C1046.52 203.333 1044.19 201.833 1042.19 199.9C1040.19 197.967 1038.59 195.667 1037.39 193C1036.25 190.267 1035.69 187.267 1035.69 184ZM1044.19 184.1C1044.19 185.967 1044.52 187.733 1045.19 189.4C1045.92 191 1046.89 192.433 1048.09 193.7C1049.35 194.9 1050.79 195.867 1052.39 196.6C1054.05 197.267 1055.82 197.6 1057.69 197.6C1059.55 197.6 1061.32 197.267 1062.99 196.6C1064.65 195.867 1066.09 194.9 1067.29 193.7C1068.55 192.433 1069.55 191 1070.29 189.4C1071.02 187.733 1071.39 185.967 1071.39 184.1C1071.39 182.233 1071.02 180.467 1070.29 178.8C1069.55 177.133 1068.55 175.7 1067.29 174.5C1066.09 173.233 1064.65 172.267 1062.99 171.6C1061.32 170.867 1059.55 170.5 1057.69 170.5C1055.82 170.5 1054.05 170.867 1052.39 171.6C1050.79 172.267 1049.35 173.233 1048.09 174.5C1046.89 175.7 1045.92 177.133 1045.19 178.8C1044.52 180.467 1044.19 182.233 1044.19 184.1ZM1089.07 163.2H1096.57C1096.71 165.267 1096.81 167.167 1096.87 168.9C1097.01 170.567 1097.14 172.233 1097.27 173.9C1098.81 170.3 1100.97 167.433 1103.77 165.3C1106.64 163.167 1110.14 162.1 1114.27 162.1C1118.47 162.1 1121.84 163.267 1124.37 165.6C1126.91 167.933 1128.24 170.933 1128.37 174.6V205H1119.77V178.5C1119.64 176.367 1118.91 174.567 1117.57 173.1C1116.24 171.567 1114.14 170.733 1111.27 170.6C1109.27 170.6 1107.44 170.967 1105.77 171.7C1104.11 172.367 1102.67 173.3 1101.47 174.5C1100.27 175.7 1099.31 177.133 1098.57 178.8C1097.91 180.467 1097.57 182.3 1097.57 184.3V205H1089.07V163.2ZM1163.25 166.9L1158.75 172.9C1158.69 172.833 1158.45 172.667 1158.05 172.4C1157.65 172.133 1157.12 171.867 1156.45 171.6C1155.85 171.333 1155.12 171.1 1154.25 170.9C1153.45 170.633 1152.62 170.5 1151.75 170.5C1150.62 170.5 1149.49 170.767 1148.35 171.3C1147.29 171.833 1146.75 172.833 1146.75 174.3C1146.75 175.567 1147.19 176.6 1148.05 177.4C1148.99 178.2 1150.12 178.933 1151.45 179.6C1152.79 180.2 1154.22 180.833 1155.75 181.5C1157.35 182.167 1158.82 183 1160.15 184C1161.49 184.933 1162.59 186.133 1163.45 187.6C1164.39 189 1164.85 190.8 1164.85 193C1164.85 196.733 1163.55 199.833 1160.95 202.3C1158.42 204.7 1154.92 205.9 1150.45 205.9C1147.85 205.9 1145.29 205.467 1142.75 204.6C1140.29 203.667 1138.29 202.333 1136.75 200.6C1137.22 200.133 1137.72 199.533 1138.25 198.8C1138.85 198.067 1139.42 197.367 1139.95 196.7C1140.55 196.033 1141.02 195.5 1141.35 195.1C1141.75 194.633 1141.99 194.4 1142.05 194.4C1142.05 194.467 1142.29 194.667 1142.75 195C1143.29 195.333 1143.95 195.7 1144.75 196.1C1145.55 196.433 1146.45 196.767 1147.45 197.1C1148.45 197.367 1149.45 197.5 1150.45 197.5C1152.05 197.5 1153.42 197.1 1154.55 196.3C1155.69 195.5 1156.25 194.433 1156.25 193.1C1156.25 191.9 1155.79 190.967 1154.85 190.3C1153.99 189.567 1152.89 188.9 1151.55 188.3C1150.22 187.7 1148.75 187.1 1147.15 186.5C1145.55 185.833 1144.09 185 1142.75 184C1141.42 183 1140.29 181.767 1139.35 180.3C1138.49 178.767 1138.05 176.8 1138.05 174.4C1138.05 172.133 1138.45 170.233 1139.25 168.7C1140.12 167.167 1141.19 165.933 1142.45 165C1143.79 164 1145.25 163.3 1146.85 162.9C1148.45 162.433 1149.99 162.2 1151.45 162.2C1153.39 162.2 1155.45 162.6 1157.65 163.4C1159.85 164.2 1161.72 165.367 1163.25 166.9ZM559.4 321.5V313.1H566.5V303.4C566.5 294.667 568.533 288.2 572.6 284C576.733 279.733 582.567 277.5 590.1 277.3V285.5C584.9 285.767 581.1 287.433 578.7 290.5C576.3 293.567 575.1 297.933 575.1 303.6V313.1H588.3V321.5H575.1V355H566.5V321.5H559.4ZM591.448 334C591.448 331 592.014 328.167 593.148 325.5C594.348 322.833 595.948 320.533 597.948 318.6C599.948 316.6 602.281 315.033 604.948 313.9C607.681 312.7 610.614 312.1 613.748 312.1C616.881 312.1 619.781 312.7 622.448 313.9C625.181 315.033 627.514 316.6 629.448 318.6C631.448 320.533 632.981 322.833 634.048 325.5C635.181 328.167 635.748 331 635.748 334C635.748 337 635.181 339.833 634.048 342.5C632.981 345.167 631.448 347.5 629.448 349.5C627.514 351.5 625.181 353.1 622.448 354.3C619.781 355.433 616.848 356 613.648 356C610.581 356 607.681 355.467 604.948 354.4C602.281 353.333 599.948 351.833 597.948 349.9C595.948 347.967 594.348 345.667 593.148 343C592.014 340.267 591.448 337.267 591.448 334ZM599.948 334.1C599.948 335.967 600.281 337.733 600.948 339.4C601.681 341 602.648 342.433 603.848 343.7C605.114 344.9 606.548 345.867 608.148 346.6C609.814 347.267 611.581 347.6 613.448 347.6C615.314 347.6 617.081 347.267 618.748 346.6C620.414 345.867 621.848 344.9 623.048 343.7C624.314 342.433 625.314 341 626.048 339.4C626.781 337.733 627.148 335.967 627.148 334.1C627.148 332.233 626.781 330.467 626.048 328.8C625.314 327.133 624.314 325.7 623.048 324.5C621.848 323.233 620.414 322.267 618.748 321.6C617.081 320.867 615.314 320.5 613.448 320.5C611.581 320.5 609.814 320.867 608.148 321.6C606.548 322.267 605.114 323.233 603.848 324.5C602.648 325.7 601.681 327.133 600.948 328.8C600.281 330.467 599.948 332.233 599.948 334.1ZM667.836 323.1C665.969 323.1 664.169 323.367 662.436 323.9C660.703 324.367 659.136 325.1 657.736 326.1C656.403 327.1 655.336 328.367 654.536 329.9C653.736 331.367 653.336 333.067 653.336 335V355H644.836V313.2H652.336C652.469 315.267 652.569 317.167 652.636 318.9C652.769 320.567 652.903 322.233 653.036 323.9C653.903 322.1 655.036 320.467 656.436 319C657.836 317.533 659.336 316.3 660.936 315.3C662.536 314.3 664.103 313.533 665.636 313C667.169 312.4 668.536 312.1 669.736 312.1L667.836 323.1ZM576.9 468.8H586.8C589.467 468.8 591.7 468.333 593.5 467.4C595.3 466.467 596.7 465.333 597.7 464C598.767 462.667 599.5 461.233 599.9 459.7C600.367 458.167 600.6 456.8 600.6 455.6C600.6 454.333 600.367 452.967 599.9 451.5C599.5 449.967 598.767 448.567 597.7 447.3C596.633 445.967 595.2 444.867 593.4 444C591.667 443.133 589.5 442.7 586.9 442.7H576.9V468.8ZM565.9 505V432.5H585.7C589.5 432.5 592.967 433 596.1 434C599.3 435 602.033 436.5 604.3 438.5C606.633 440.433 608.433 442.833 609.7 445.7C610.967 448.5 611.6 451.733 611.6 455.4C611.6 458.267 611.167 461.133 610.3 464C609.433 466.8 608.033 469.333 606.1 471.6C604.167 473.8 601.633 475.6 598.5 477C595.367 478.4 591.567 479.1 587.1 479.1H576.9V505H565.9ZM619.029 447.2C619.029 445.6 619.596 444.267 620.729 443.2C621.929 442.133 623.196 441.6 624.529 441.6C625.862 441.6 627.096 442.133 628.229 443.2C629.362 444.267 629.929 445.6 629.929 447.2C629.929 448.8 629.362 450.133 628.229 451.2C627.096 452.2 625.862 452.7 624.529 452.7C623.196 452.7 621.929 452.2 620.729 451.2C619.596 450.133 619.029 448.8 619.029 447.2ZM628.629 505H620.129V463.2H628.629V505ZM651.037 482.9C648.703 479.567 646.27 476.267 643.737 473C641.27 469.733 638.903 466.467 636.637 463.2H647.137C647.937 464.533 648.703 465.733 649.437 466.8C650.237 467.867 651.003 468.9 651.737 469.9C652.537 470.9 653.303 471.933 654.037 473C654.837 474 655.67 475.133 656.537 476.4C658.203 473.933 659.77 471.767 661.237 469.9C662.703 467.967 664.303 465.733 666.037 463.2H675.537C674.337 465.067 673.17 466.8 672.037 468.4C670.903 469.933 669.77 471.5 668.637 473.1C667.503 474.633 666.337 476.233 665.137 477.9C664.003 479.5 662.803 481.3 661.537 483.3C662.737 484.9 664.003 486.633 665.337 488.5C666.737 490.367 668.137 492.267 669.537 494.2C670.937 496.067 672.303 497.933 673.637 499.8C674.97 501.667 676.203 503.4 677.337 505H666.437C664.57 502.4 662.737 500 660.937 497.8C659.137 495.6 657.303 493.233 655.437 490.7C653.703 493.233 652.003 495.6 650.337 497.8C648.67 500 646.97 502.4 645.237 505H635.737C638.27 501.2 640.837 497.5 643.437 493.9C646.037 490.233 648.57 486.567 651.037 482.9ZM717.931 500.1C715.931 501.9 713.498 503.333 710.631 504.4C707.765 505.467 704.831 506 701.831 506C698.765 506 695.865 505.433 693.131 504.3C690.465 503.1 688.131 501.533 686.131 499.6C684.131 497.6 682.531 495.267 681.331 492.6C680.198 489.933 679.631 487.1 679.631 484.1C679.631 481.1 680.198 478.267 681.331 475.6C682.531 472.933 684.131 470.6 686.131 468.6C688.131 466.6 690.431 465.033 693.031 463.9C695.698 462.7 698.531 462.1 701.531 462.1C706.265 462.1 710.365 463.533 713.831 466.4C717.365 469.2 719.898 472.9 721.431 477.5C719.365 478.233 716.998 479.133 714.331 480.2C711.665 481.267 708.898 482.4 706.031 483.6C703.165 484.733 700.298 485.867 697.431 487C694.565 488.133 691.898 489.167 689.431 490.1C690.565 492.367 692.198 494.2 694.331 495.6C696.531 496.933 698.965 497.6 701.631 497.6C703.431 497.6 705.231 497.267 707.031 496.6C708.898 495.933 710.398 495.033 711.531 493.9L717.931 500.1ZM710.731 475.5C709.931 473.833 708.665 472.6 706.931 471.8C705.198 470.933 703.431 470.5 701.631 470.5C699.698 470.5 697.898 470.867 696.231 471.6C694.631 472.333 693.231 473.333 692.031 474.6C690.831 475.8 689.865 477.2 689.131 478.8C688.465 480.4 688.131 482.033 688.131 483.7C688.131 484.033 688.131 484.267 688.131 484.4C688.198 484.533 688.231 484.633 688.231 484.7C689.965 484.033 691.831 483.3 693.831 482.5C695.898 481.633 697.931 480.8 699.931 480C701.931 479.133 703.865 478.333 705.731 477.6C707.598 476.8 709.265 476.1 710.731 475.5ZM737.42 505H728.92V427.3H737.42V505ZM746.623 484.5C746.623 481.433 747.19 478.567 748.323 475.9C749.523 473.167 751.123 470.8 753.123 468.8C755.123 466.733 757.423 465.1 760.023 463.9C762.69 462.7 765.523 462.1 768.523 462.1C770.523 462.1 772.357 462.367 774.023 462.9C775.69 463.367 777.123 463.967 778.323 464.7C779.523 465.433 780.49 466.2 781.223 467C781.957 467.8 782.457 468.5 782.723 469.1L783.123 463.2H791.323V505H782.723V499.7C782.39 500.233 781.857 500.867 781.123 501.6C780.39 502.333 779.423 503.033 778.223 503.7C777.09 504.3 775.723 504.833 774.123 505.3C772.523 505.767 770.69 506 768.623 506C765.423 506 762.457 505.433 759.723 504.3C757.057 503.1 754.757 501.533 752.823 499.6C750.89 497.6 749.357 495.3 748.223 492.7C747.157 490.1 746.623 487.367 746.623 484.5ZM755.223 484C755.223 485.933 755.557 487.733 756.223 489.4C756.957 491.067 757.923 492.5 759.123 493.7C760.323 494.9 761.757 495.867 763.423 496.6C765.09 497.267 766.923 497.6 768.923 497.6C770.923 497.6 772.757 497.267 774.423 496.6C776.157 495.867 777.623 494.9 778.823 493.7C780.09 492.433 781.057 491 781.723 489.4C782.39 487.733 782.723 485.933 782.723 484C782.723 482.067 782.39 480.3 781.723 478.7C781.057 477.033 780.09 475.6 778.823 474.4C777.623 473.2 776.157 472.267 774.423 471.6C772.757 470.867 770.923 470.5 768.923 470.5C766.923 470.5 765.09 470.867 763.423 471.6C761.757 472.267 760.323 473.2 759.123 474.4C757.923 475.6 756.957 477.033 756.223 478.7C755.557 480.3 755.223 482.067 755.223 484ZM825.879 487.7V478.8H844.479V487.7H825.879ZM914.416 484C914.416 482.067 914.116 480.3 913.516 478.7C912.916 477.033 912.049 475.6 910.916 474.4C909.782 473.2 908.416 472.267 906.816 471.6C905.216 470.867 903.416 470.5 901.416 470.5C899.416 470.5 897.549 470.867 895.816 471.6C894.149 472.267 892.716 473.2 891.516 474.4C890.316 475.6 889.349 477.033 888.616 478.7C887.949 480.3 887.616 482.067 887.616 484C887.616 485.933 887.949 487.733 888.616 489.4C889.349 491.067 890.316 492.5 891.516 493.7C892.716 494.9 894.149 495.867 895.816 496.6C897.549 497.267 899.416 497.6 901.416 497.6C903.416 497.6 905.216 497.267 906.816 496.6C908.416 495.867 909.782 494.9 910.916 493.7C912.049 492.433 912.916 491 913.516 489.4C914.116 487.733 914.416 485.933 914.416 484ZM923.716 484.2C923.716 487.333 923.182 490.233 922.116 492.9C921.049 495.567 919.549 497.867 917.616 499.8C915.682 501.733 913.349 503.267 910.616 504.4C907.949 505.467 905.016 506 901.816 506C900.149 506 898.549 505.8 897.016 505.4C895.549 505.067 894.182 504.6 892.916 504C891.649 503.333 890.549 502.633 889.616 501.9C888.682 501.1 887.982 500.3 887.516 499.5C887.516 499.833 887.516 500.2 887.516 500.6C887.582 500.933 887.616 501.267 887.616 501.6V525.1H879.016V463.2H887.316C887.316 464 887.349 465 887.416 466.2C887.549 467.333 887.616 468.367 887.616 469.3C888.149 468.5 888.849 467.7 889.716 466.9C890.649 466.033 891.716 465.267 892.916 464.6C894.182 463.867 895.582 463.267 897.116 462.8C898.649 462.333 900.349 462.1 902.216 462.1C905.416 462.1 908.316 462.633 910.916 463.7C913.582 464.7 915.849 466.167 917.716 468.1C919.649 469.967 921.116 472.267 922.116 475C923.182 477.733 923.716 480.8 923.716 484.2ZM931.92 447.2C931.92 445.6 932.486 444.267 933.62 443.2C934.82 442.133 936.086 441.6 937.42 441.6C938.753 441.6 939.986 442.133 941.12 443.2C942.253 444.267 942.82 445.6 942.82 447.2C942.82 448.8 942.253 450.133 941.12 451.2C939.986 452.2 938.753 452.7 937.42 452.7C936.086 452.7 934.82 452.2 933.62 451.2C932.486 450.133 931.92 448.8 931.92 447.2ZM941.52 505H933.02V463.2H941.52V505Z" fill="black"/>
<rect x="250" y="408" width="90" height="90" fill="#99FFA3"/>
<rect x="369" y="408" width="90" height="90" fill="#439D23"/>
<rect x="131" y="408" width="90" height="90" fill="#A6F7AE"/>
<rect x="250" y="275" width="90" height="90" fill="#35AF42"/>
<rect x="369" y="275" width="90" height="90" fill="#35AF42"/>
<rect x="131" y="275" width="90" height="90" fill="#4DC659"/>
<rect x="250" y="142" width="90" height="90" fill="#23822C"/>
<rect x="369" y="142" width="90" height="90" fill="#217029"/>
<rect x="131" y="142" width="90" height="90" fill="#256D2D"/>
</svg>
